<?xml version="1.0" encoding="utf-8"?>
<!-- Generator: Adobe Illustrator 24.3.0, SVG Export Plug-In . SVG Version: 6.00 Build 0)  -->
<svg version="1.1" id="레이어_1" xmlns="http://www.w3.org/2000/svg" xmlns:xlink="http://www.w3.org/1999/xlink" x="0px"
	 y="0px" viewBox="0 0 148.7 51" style="enable-background:new 0 0 148.7 51;" xml:space="preserve">
<style type="text/css">
	.st0{fill:url(#SVGID_1_);}
	.st1{fill:#004098;}
</style>
<g>
	<g>
		
			<radialGradient id="SVGID_1_" cx="3267.2349" cy="4925.6841" r="19.1036" gradientTransform="matrix(1.0766 -5.000000e-03 4.500000e-03 0.9788 -3479.1487 -4779.6387)" gradientUnits="userSpaceOnUse">
			<stop  offset="0" style="stop-color:#D3EDFB"/>
			<stop  offset="0.5341" style="stop-color:#56C3F1"/>
			<stop  offset="1" style="stop-color:#009EDD"/>
		</radialGradient>
		<path class="st0" d="M57.3,26.6C57,20,60.2,14.1,65.2,11.1c-2.5-1.5-5.3-2.2-8.4-2c-8.5,0.6-14.9,8.5-14.4,17.6
			c0.5,9.1,7.8,16.1,16.3,15.5c2.4-0.2,4.6-0.9,6.5-2.1C60.8,37.4,57.7,32.5,57.3,26.6z"/>
		<g>
			<g>
				<path class="st1" d="M80.4,35.3c-0.4,0-0.6-0.1-0.5-0.6l1-5.4l0.1-0.7c0.1-0.5,0.2-0.5,0.5-0.5L99.2,28c0.8,0,0.8-0.6,0.9-1.3
					l0.8-5.6c0.1-0.5,0.1-0.8-0.6-0.8l-17.3,0.1c-0.4,0-0.6-0.1-0.5-0.6l1-5.4c0.1-0.5,0.2-0.5,0.5-0.5l13.5-0.1
					c2.7,0,6.2-0.7,6.9-5.2l0.3-2.2c0-0.4,0.1-0.8-0.6-0.8L70.8,5.9c0,0-0.6,0.1-1.9-0.4c-2-0.7-4.6-1.2-6.4-1.3
					c-14.2-1.5-23.8,8.5-24.1,21c-0.2,9.1,6.4,22,20.9,21.9c5.4,0,9.8-1.3,14.1-3.1c1.2-0.5,1.9-0.8,2.7-0.8
					c5.4,0,22.6-0.1,22.6-0.1c0.7,0,0.9-0.2,1-0.9l0.9-6.1c0.1-0.3,0.1-0.8-0.5-0.8l-19.4,0.1H80.4z M76.4,14.7
					c-1.1,0.7-2.9,1.9-3.6,2.4c-1,0.7-1.1,0.9-0.6,2.3c0,0,0,0,0,0c0.6,1.6,0.8,3.5,0.9,5.2c0.5,9.1-6,17-14.4,17.6
					c-8.5,0.6-15.7-6.3-16.3-15.5c-0.5-9.1,6-17,14.4-17.6c3.1-0.2,6,0.6,8.5,2.1c0,0,0,0,0,0c0.1,0.1,0.2,0.1,0.2,0.2
					c0.1,0.1,0.2,0.1,0.3,0.2c3.1,2.1,3.4,2.5,7.3,2.5l3,0C76.9,14,76.8,14.4,76.4,14.7z"/>
			</g>
			<path class="st1" d="M131.5,34.1l-0.6-1.8c0,0,0-0.1,0-0.1l-7.2-21.7c-1.2-3.4-2.6-4.8-6.3-4.8l-8.7,0c-0.6,0-0.9,0.1-1,0.8
				l-5.3,35.8c-0.1,0.5,0.2,0.7,0.6,0.7l7.8,0c0.5,0,0.7-0.2,0.8-0.8l4.2-28.5c0,0,0.1-0.3,0.2,0c0.9,2.9,6,18.4,7.8,23.9
				c1.2,3.6,3.7,5.3,7.4,5.3l7.3,0c0.6,0,0.9-0.4,1-1c1.3-8.8,5.3-35.5,5.3-35.5c0.1-0.5-0.2-0.7-0.6-0.7l-7.9,0c-0.6,0-1,0.1-1,0.8
				l-3.6,27.7C131.6,34.2,131.5,34.2,131.5,34.1z"/>
			<path class="st1" d="M16.9,24.6c0,0-2.1,13.4-2.7,17.8c-0.1,0.6-0.2,1-0.8,1c-2.1,0-8.8,0-8.8,0c-0.4,0-0.7-0.2-0.7-0.6L8.9,6.8
				C9,6.4,9.3,6.2,9.6,6.2l9.1,0c0.4,0,0.7,0.3,0.6,0.6l-2.2,15.9c0,0.2,0.1,0.3,0.3,0.1L32.1,7c0.5-0.6,0.9-0.6,1.6-0.6l10.1-0.1
				c0.4,0,0.6,0.3,0.2,0.7L28.6,23.8c-0.3,0.4-0.1,0.6,0.2,1L42,42.5c0.2,0.2,0.2,0.4,0.1,0.5c-0.1,0.2-0.2,0.2-0.5,0.3l-4.5,0
				c-3.4,0-6.4,0.1-9.9-4.7l-10-14C17.2,24.4,17,24.2,16.9,24.6z"/>
		</g>
	</g>
</g>
</svg>
